<svg xmlns="http://www.w3.org/2000/svg" viewBox="0 0 66 66"><path d="M30.5 25.4h-.4c-1 .1-1.8.8-2 1.6l4.5-.7c-.5-.5-1.2-.9-2.1-.9z"/><path d="M35.6 16.7c-.1-.8-.9-1.2-1.4-1-7.1 3.2-14.7 4.4-22.6 3.4h-.1c-.4 0-.6.2-.7.3-.2.3-.3.6-.2 1 3.3 17.7 10.1 28.9 17 27.9 9.5-1.4 9.2-21.7 8-31.6zM15.3 31c-.2 0-.4-.1-.6-.2-.2-.2-.4-.4-.4-.7-.4-2.4 1.4-4.6 3.8-4.9 2.5-.4 4.7 1.3 5.1 3.6.1.5-.3 1.1-.8 1.1l-6.9 1c-.1.1-.2.1-.2.1zm11.2 10.4c-.5.1-.9.1-1.4.1-1.6 0-3.1-.4-4.2-1.2-.4-.3-.5-.9-.2-1.4.3-.4.9-.5 1.4-.2 1 .7 2.5 1 4.1.7 1.6-.2 3-1 3.7-1.9.3-.4 1-.5 1.4-.2 1.7 1.3-2.2 3.7-4.8 4.1zm7.6-13.2-6.9 1h-.1c-.2 0-.4-.1-.6-.2-.2-.2-.4-.4-.4-.7-.4-2.4 1.4-4.6 3.8-4.9 4.2-.5 6.2 4.5 4.2 4.8z"/><path d="M18.8 27.2h-.4c-1 .1-1.8.8-2 1.6l4.5-.7c-.5-.5-1.3-.9-2.1-.9zm22.3 7.2L38 33.1c0 .4-.1.9-.1 1.3 1 .8 2.4.7 3.2 0zm8.4 4.9c.9.4 1.9.2 2.6-.4l-4.2-1.7c.1.9.6 1.7 1.6 2.1z"/><path d="m38.1 31 4.8 2c.5.2.8.8.5 1.3-.7 1.6-2.2 2.7-4 2.7-.8 0-1.4-.2-2-.5-.6 3.8-1.7 6.9-3.2 9.2.8-1 4.1-1 6.1-.2s3.5 2.2 4.2 3.8c.2.5 0 1.1-.5 1.3-.1.1-.3.1-.4.1-.4 0-.8-.2-.9-.6-.5-1.1-1.6-2.1-3.1-2.7-3.6-1.5-4.8.8-5.5-.8-.1-.4-.1-.7.1-.9-.8 1.2-1.7 2.3-2.7 3C33.9 62 47.7 58.9 59.4 32.9c.2-.4.2-.8 0-1.1-.1-.2-.3-.4-.7-.5-7.5-.9-14.5-3.6-20.5-8.2.1 2.6.1 5.3-.1 7.9zm8.1 4.4c.1-.2.3-.4.5-.5.2-.1.5-.1.8 0l6.5 2.7c.5.2.8.8.5 1.3-.7 1.6-2.2 2.6-4 2.6-3.2 0-5.5-3.2-4.3-6.1z"/><path d="M33 1C15.4 1 1 15.4 1 33c0 8.9 3.6 16.9 9.4 22.6C16.2 61.4 24.2 65 33 65c17.8 0 32-14.5 32-32C65 15.4 50.6 1 33 1zm11.7 15.5h3c.6 0 1 .4 1 1s-.4 1-1 1h-3c-.6 0-1-.4-1-1s.5-1 1-1zm-29.6 33h-3c-.6 0-1-.4-1-1s.4-1 1-1h3c.6 0 1 .4 1 1s-.5 1-1 1zm46-18.7c.5.9.5 2 .1 2.9-2.4 5.4-5.1 10-7.8 13.8h1.1c.6 0 1 .4 1 1s-.4 1-1 1h-2.6c-4.8 6-12.1 11.9-18.3 7.2-.1.2-.3.3-.6.3-1.3 0-.9-1.8-1-2-1-1.4-1.8-3.1-2.2-5.2-2.2.9-4.6.8-6.9-.3h-2.8c-.6 0-1-.4-1-1 0-.5.4-.9.9-1-3-2.8-5.8-7.4-8-13.5H9.7c-.6 0-1-.4-1-1s.4-1 1-1h1.6c-1.1-3.3-2-7.1-2.8-11.2-.2-1 .1-1.9.7-2.7.6-.8 1.6-1.2 2.6-1 6.9.8 14.3-.1 21.4-3.2H33c-.6 0-1-.4-1-1v-3c0-.6.4-1 1-1s1 .4 1 1v3c0 .4-.2.7-.5.8.3-.1.7-.2 1-.2 1.5 0 2.9 1.2 3 2.8h2.1c.6 0 1 .4 1 1s-.4 1-1 1h-1.9c.1.7.1 1.4.2 2.1.3.1.5.2.7.4 5.9 4.6 12.7 7.4 20.2 8.3 1 .3 1.8.9 2.3 1.7zm-4.4-13.3c0 .6-.4 1-1 1h-3c-.6 0-1-.4-1-1s.4-1 1-1h3c.6 0 1 .5 1 1zM34.3 45.7z"/></svg>