<svg xmlns="http://www.w3.org/2000/svg" viewBox="0 0 132 132"><circle cx="66" cy="66" r="64" fill="#FFCEAB"/><path fill="#F4BD98" d="M120.525 71.574h9.23c.07-.67.12-1.34.15-2.02h-9.38c-.55 0-1.01.46-1.01 1.01 0 .56.46 1.01 1.01 1.01zm-10.97 0h6.61c.55 0 1-.45 1-1.01 0-.55-.45-1.01-1-1.01h-6.61c-.56 0-1.01.46-1.01 1.01 0 .56.45 1.01 1.01 1.01zM54.867 16.167c0 .56.45 1.01 1 1.01h2.26a1.005 1.005 0 0 0 0-2.01h-2.26c-.55 0-1 .45-1 1zm-16.276 1.01h12.916c.55 0 1.01-.45 1.01-1.01 0-.55-.46-1-1.01-1H38.59c-.55 0-1.01.45-1.01 1 0 .56.46 1.01 1.01 1.01zM32.84 35.539c0 .56.45 1.01 1 1.01h1.15c.56 0 1.01-.45 1.01-1.01 0-.55-.45-1.01-1.01-1.01h-1.15c-.55 0-1 .46-1 1.01zm-7.65 1.01h4.29c.55 0 1.01-.45 1.01-1.01 0-.55-.46-1.01-1.01-1.01h-4.29c-.56 0-1.01.46-1.01 1.01 0 .56.45 1.01 1.01 1.01zm-3.36-1.01c0-.55-.45-1.01-1.01-1.01h-.17c-.56 0-1.01.46-1.01 1.01 0 .56.45 1.01 1.01 1.01h.17c.56 0 1.01-.45 1.01-1.01zm86.746 2.02c0 .56.45 1.01 1 1.01h1.15c.56 0 1.01-.45 1.01-1.01 0-.55-.45-1.01-1.01-1.01h-1.15c-.55 0-1 .46-1 1.01zm-7.65 1.01h4.29c.55 0 1.01-.45 1.01-1.01 0-.55-.46-1.01-1.01-1.01h-4.29c-.56 0-1.01.46-1.01 1.01 0 .56.45 1.01 1.01 1.01zm-3.36-1.01c0-.55-.45-1.01-1.01-1.01h-.17c-.56 0-1.01.46-1.01 1.01 0 .56.45 1.01 1.01 1.01h.17c.56 0 1.01-.45 1.01-1.01zm-64.83 62.861c0 .56.45 1.01 1 1.01h1.15c.56 0 1.01-.45 1.01-1.01 0-.55-.45-1.01-1.01-1.01h-1.15c-.55 0-1 .46-1 1.01zm-7.65 1.01h4.29c.55 0 1.01-.45 1.01-1.01 0-.55-.46-1.01-1.01-1.01h-4.29c-.56 0-1.01.46-1.01 1.01 0 .56.45 1.01 1.01 1.01zm-3.36-1.01c0-.55-.45-1.01-1.01-1.01h-.17c-.56 0-1.01.46-1.01 1.01 0 .56.45 1.01 1.01 1.01h.17c.56 0 1.01-.45 1.01-1.01zm36.288-28.846c0 .56.45 1.01 1 1.01h1.15c.56 0 1.01-.45 1.01-1.01 0-.55-.45-1.01-1.01-1.01h-1.15c-.55 0-1 .46-1 1.01zm-7.65 1.01h4.29c.55 0 1.01-.45 1.01-1.01 0-.55-.46-1.01-1.01-1.01h-4.29c-.56 0-1.01.46-1.01 1.01 0 .56.45 1.01 1.01 1.01zm-3.36-1.01c0-.55-.45-1.01-1.01-1.01h-.17c-.56 0-1.01.46-1.01 1.01 0 .56.45 1.01 1.01 1.01h.17c.56 0 1.01-.45 1.01-1.01zm-26.264-9.02h-6.875c-.55 0-1.01.45-1.01 1.01 0 .55.46 1 1.01 1h6.875c.55 0 1.01-.45 1.01-1 0-.56-.46-1.01-1.01-1.01zm-13.495 2.01h2.26a1.005 1.005 0 0 0 0-2.01h-2.26c-.55 0-1.01.45-1.01 1.01 0 .55.46 1 1.01 1zm87.71-52.436h-6.876c-.55 0-1.01.45-1.01 1.01 0 .55.46 1 1.01 1h6.875c.55 0 1.01-.45 1.01-1 0-.56-.46-1.01-1.01-1.01zm-13.496 2.01h2.26a1.005 1.005 0 0 0 0-2.01h-2.26c-.55 0-1.01.45-1.01 1.01 0 .55.46 1 1.01 1zm5.065 75.28c0-.56-.45-1.01-1-1.01h-2.26c-.55 0-1 .45-1 1.01 0 .55.45 1.01 1 1.01h2.26c.55 0 1-.46 1-1.01zm-6.61 0c0-.56-.46-1.01-1.01-1.01h-5.97c-.56 0-1.01.45-1.01 1.01 0 .55.45 1.01 1.01 1.01h5.97c.55 0 1.01-.46 1.01-1.01zm-11.52 1.01h.17c.56 0 1.01-.46 1.01-1.01 0-.56-.45-1.01-1.01-1.01h-.17c-.55 0-1.01.45-1.01 1.01 0 .55.46 1.01 1.01 1.01z"/><g fill="#F4BD98"><path d="M21.454 46.847h27.359v52.942H21.454z"/><path d="M48.808 46.85v52.942h-27.35v-2.076h2.614c12.521 0 22.671-10.15 22.671-22.671V46.85h2.065zM87.181 46.847h27.359v52.942H87.181z"/><path d="M114.539 46.85v52.942H87.177v-2.076c13.971 0 25.297-11.326 25.297-25.297V46.851h2.065z"/><path d="M48.813 32.784h38.368V99.79H48.813zM46.727 28.333h42.539v4.451H46.727z"/><path d="M87.181 42.396h29.356v4.451H87.181zM19.457 42.396h29.356v4.451H19.457zM91.562 53.354h7.093v7.093h-7.093zM103.067 53.354h7.093v7.093h-7.093zM91.562 64.299h7.093v7.093h-7.093zM103.067 64.299h7.093v7.093h-7.093zM91.562 75.245h7.093v7.093h-7.093zM103.067 75.245h7.093v7.093h-7.093zM91.562 86.19h7.093v7.093h-7.093zM103.067 86.19h7.093v7.093h-7.093z"/><path d="M98.652 53.349v7.095h-7.085V59.38h6.02v-6.031zM110.16 53.349v7.095h-7.096V59.38h6.031v-6.031zM98.652 64.302v7.085h-7.085v-1.065h6.02v-6.02zM110.16 64.302v7.085h-7.096v-1.065h6.031v-6.02zM98.652 75.244v7.096h-7.085v-1.065h6.02v-6.031zM110.16 75.244v7.096h-7.096v-1.065h6.031v-6.031zM98.652 86.187v7.096h-7.085v-1.065h6.02v-6.031zM110.16 86.187v7.096h-7.096v-1.065h6.031v-6.031zM25.834 53.354h7.093v7.093h-7.093zM37.339 53.354h7.093v7.093h-7.093zM25.834 64.299h7.093v7.093h-7.093zM37.339 64.299h7.093v7.093h-7.093zM25.834 75.245h7.093v7.093h-7.093zM37.339 75.245h7.093v7.093h-7.093zM25.834 86.19h7.093v7.093h-7.093zM37.339 86.19h7.093v7.093h-7.093z"/><path d="M32.925 53.349v7.095H25.84V59.38h6.02v-6.031zM44.432 53.349v7.095h-7.096V59.38h6.031v-6.031zM32.925 64.302v7.085H25.84v-1.065h6.02v-6.02zM44.432 64.302v7.085h-7.096v-1.065h6.031v-6.02zM32.925 75.244v7.096H25.84v-1.065h6.02v-6.031zM44.432 75.244v7.096h-7.096v-1.065h6.031v-6.031zM32.925 86.187v7.096H25.84v-1.065h6.02v-6.031zM44.432 86.187v7.096h-7.096v-1.065h6.031v-6.031zM61.443 82.338H74.55v17.454H61.443zM53.506 53.35h7.093v7.093h-7.093zM53.506 64.855h7.093v7.093h-7.093zM64.452 53.35h7.093v7.093h-7.093zM64.452 64.855h7.093v7.093h-7.093zM75.397 53.35h7.093v7.093h-7.093zM75.397 64.855h7.093v7.093h-7.093z"/><path d="M53.501 60.44h7.096v-7.085h-1.065v6.02h-6.031zM53.501 71.948h7.096v-7.096h-1.065v6.031h-6.031zM64.455 60.44h7.085v-7.085h-1.065v6.02h-6.02zM64.455 71.948h7.085v-7.096h-1.065v6.031h-6.02zM75.397 60.44h7.096v-7.085h-1.065v6.02h-6.031zM75.397 71.948h7.096v-7.096h-1.065v6.031h-6.031zM53.506 41.845h7.093v7.093h-7.093zM64.452 41.845h7.093v7.093h-7.093zM75.397 41.845h7.093v7.093h-7.093z"/><path d="M53.501 48.936h7.096v-7.085h-1.065v6.02h-6.031zM64.455 48.936h7.085v-7.085h-1.065v6.02h-6.02zM75.397 48.936h7.096v-7.085h-1.065v6.02h-6.031z"/></g><path fill="#ED6E2E" d="M11.652 99.79C22.952 117.924 43.061 130 66 130s43.049-12.076 54.348-30.21H11.652z"/><path fill="#66B071" d="M14.81 104.414C26.487 119.95 45.07 130 66 130s39.513-10.05 51.19-25.586H14.81z"/><path fill="#EDEDED" d="M19.457 46.847h27.359v52.942H19.457z"/><path fill="#DDDCE0" d="M46.81 46.85v52.942H19.46v-2.076h2.615c12.521 0 22.671-10.15 22.671-22.671V46.85h2.065z"/><path fill="#EDEDED" d="M85.184 46.847h27.359v52.942H85.184z"/><path fill="#DDDCE0" d="M112.542 46.85v52.942H85.18v-2.076c13.971 0 25.297-11.326 25.297-25.297V46.851h2.065z"/><path fill="#FFF" d="M46.816 32.784h38.368V99.79H46.816z"/><path fill="#4A749B" d="M44.73 28.333h42.539v4.451H44.73zM85.184 42.396h29.356v4.451H85.184zM17.459 42.396h29.356v4.451H17.459z"/><path fill="#2F4867" d="M59.446 82.338h13.107v17.454H59.446z"/><path fill="#168DE2" d="M89.565 53.354h7.093v7.093h-7.093zM101.07 53.354h7.093v7.093h-7.093zM89.565 64.299h7.093v7.093h-7.093zM101.07 64.299h7.093v7.093h-7.093zM89.565 75.245h7.093v7.093h-7.093zM101.07 75.245h7.093v7.093h-7.093zM89.565 86.19h7.093v7.093h-7.093zM101.07 86.19h7.093v7.093h-7.093z"/><path fill="#2E6BCE" d="M96.655 53.349v7.095H89.57V59.38h6.02v-6.031zM108.163 53.349v7.095h-7.096V59.38h6.03v-6.031zM96.655 64.302v7.085H89.57v-1.065h6.02v-6.02zM108.163 64.302v7.085h-7.096v-1.065h6.03v-6.02zM96.655 75.244v7.096H89.57v-1.065h6.02v-6.031zM108.163 75.244v7.096h-7.096v-1.065h6.03v-6.031zM96.655 86.187v7.096H89.57v-1.065h6.02v-6.031zM108.163 86.187v7.096h-7.096v-1.065h6.03v-6.031z"/><path fill="#168DE2" d="M23.837 53.354h7.093v7.093h-7.093zM35.342 53.354h7.093v7.093h-7.093zM23.837 64.299h7.093v7.093h-7.093zM35.342 64.299h7.093v7.093h-7.093zM23.837 75.245h7.093v7.093h-7.093zM35.342 75.245h7.093v7.093h-7.093zM23.837 86.19h7.093v7.093h-7.093zM35.342 86.19h7.093v7.093h-7.093z"/><path fill="#2E6BCE" d="M30.928 53.349v7.095h-7.085V59.38h6.02v-6.031zM42.435 53.349v7.095h-7.096V59.38h6.031v-6.031zM30.928 64.302v7.085h-7.085v-1.065h6.02v-6.02zM42.435 64.302v7.085h-7.096v-1.065h6.031v-6.02zM30.928 75.244v7.096h-7.085v-1.065h6.02v-6.031zM42.435 75.244v7.096h-7.096v-1.065h6.031v-6.031zM30.928 86.187v7.096h-7.085v-1.065h6.02v-6.031zM42.435 86.187v7.096h-7.096v-1.065h6.031v-6.031z"/><path fill="#168DE2" d="M51.509 53.35h7.093v7.093h-7.093zM51.509 64.855h7.093v7.093h-7.093zM62.455 53.35h7.093v7.093h-7.093zM62.455 64.855h7.093v7.093h-7.093zM73.4 53.35h7.093v7.093H73.4zM73.4 64.855h7.093v7.093H73.4z"/><path fill="#2E6BCE" d="M51.504 60.44H58.6v-7.085h-1.065v6.02h-6.031zM51.504 71.948H58.6v-7.096h-1.065v6.031h-6.031zM62.458 60.44h7.084v-7.085h-1.064v6.02h-6.02zM62.458 71.948h7.084v-7.096h-1.064v6.031h-6.02zM73.4 60.44h7.096v-7.085h-1.065v6.02H73.4zM73.4 71.948h7.096v-7.096h-1.065v6.031H73.4z"/><path fill="#168DE2" d="M51.509 41.845h7.093v7.093h-7.093zM62.455 41.845h7.093v7.093h-7.093zM73.4 41.845h7.093v7.093H73.4z"/><path fill="#2E6BCE" d="M51.504 48.936H58.6v-7.085h-1.065v6.02h-6.031zM62.458 48.936h7.084v-7.085h-1.064v6.02h-6.02zM73.4 48.936h7.096v-7.085h-1.065v6.02H73.4z"/></svg>