<svg xmlns="http://www.w3.org/2000/svg" viewBox="0 0 48 48"><path fill="#e040fb" d="M48 24A24 24 0 0 0 24 0 24 24 0 0 0 0 24a24 24 0 0 0 24 24 24 24 0 0 0 24-24z"/><g fill="#fff"><path fill-rule="evenodd" d="m12.25 10.874.012 12.246h13.863v-1.03l-.908.329a1.38 1.38 0 0 1-1.44-.322l-.99-.989a1.407 1.407 0 0 1-.318-1.504c.191-.472.696-.859 1.275-.859.373 0 .73.15.989.418l.373.373 1.928-.695c.416-.15.852-.068 1.197.154-1.145-2.149.238-4.574 2.52-4.596v-3.525zm7.992 2.22a.5.5 0 0 1 .508.509v.742h.742a.5.5 0 1 1 0 1h-.742v.742a.5.5 0 1 1-1 0v-.742h-.742a.5.5 0 1 1 0-1h.742v-.742a.5.5 0 0 1 .492-.508zm2.996 0a.5.5 0 0 1 .508.507l.01 1.994h.744v-.744a.5.5 0 0 1 .492-.506.5.5 0 0 1 .508.506v.744a.5.5 0 1 1 0 1v.492a.5.5 0 1 1-1 0v-.492h-1.24a.5.5 0 0 1-.5-.498l-.01-2.493a.5.5 0 0 1 .488-.51zm-7.896.005a1.81 1.81 0 0 1 1.406.527 1.73 1.73 0 0 1 .361 1.908c-.01.022-.025.038-.035.059h.42a.5.5 0 1 1 0 1h-2.011l-.016.002a.501.501 0 0 1-.022-.002h-.438a.5.5 0 1 1 0-1h.46a.788.788 0 0 0 .726-.461.715.715 0 0 0-.155-.803.82.82 0 0 0-.859-.183.5.5 0 0 1-.68-.48.5.5 0 0 1 .332-.458c.167-.062.338-.098.51-.11z"/><path d="M2694.5 839.612a2.258 2.258 0 0 0-2.25 2.25 2.258 2.258 0 0 0 2.25 2.25 2.258 2.258 0 0 0 2.25-2.25 2.258 2.258 0 0 0-2.25-2.25z" color="#000" font-family="sans-serif" font-weight="400" overflow="visible" style="line-height:normal;text-indent:0;text-align:start;text-decoration-line:none;text-decoration-style:solid;text-decoration-color:#000;text-transform:none;white-space:normal;isolation:auto;mix-blend-mode:normal;solid-color:#000;solid-opacity:1" transform="translate(-2660.5 -811.988)"/><path fill-rule="evenodd" d="M2690.992 844.112a.5.5 0 0 0-.492.508v3.992a.5.5 0 0 0 .5.5h7a.5.5 0 0 0 .5-.5v-3.992a.5.5 0 1 0-1 0v3.492h-6v-3.492a.5.5 0 0 0-.508-.508z" color="#000" font-family="sans-serif" font-weight="400" overflow="visible" style="line-height:normal;text-indent:0;text-align:start;text-decoration-line:none;text-decoration-style:solid;text-decoration-color:#000;text-transform:none;white-space:normal;isolation:auto;mix-blend-mode:normal;solid-color:#000;solid-opacity:1" transform="translate(-2660.5 -811.988)"/><path d="M2684.5 839.612a2.258 2.258 0 0 0-2.25 2.25 2.258 2.258 0 0 0 2.25 2.25 2.258 2.258 0 0 0 2.25-2.25 2.258 2.258 0 0 0-2.25-2.25z" color="#000" font-family="sans-serif" font-weight="400" overflow="visible" style="line-height:normal;text-indent:0;text-align:start;text-decoration-line:none;text-decoration-style:solid;text-decoration-color:#000;text-transform:none;white-space:normal;isolation:auto;mix-blend-mode:normal;solid-color:#000;solid-opacity:1" transform="translate(-2660.5 -811.988)"/><path fill-rule="evenodd" d="M2680.992 844.112a.5.5 0 0 0-.492.508v3.992a.5.5 0 0 0 .5.5h7a.5.5 0 0 0 .5-.5v-3.992a.5.5 0 1 0-1 0v3.492h-6v-3.492a.5.5 0 0 0-.508-.508z" color="#000" font-family="sans-serif" font-weight="400" overflow="visible" style="line-height:normal;text-indent:0;text-align:start;text-decoration-line:none;text-decoration-style:solid;text-decoration-color:#000;text-transform:none;white-space:normal;isolation:auto;mix-blend-mode:normal;solid-color:#000;solid-opacity:1" transform="translate(-2660.5 -811.988)"/><path d="M2674.5 839.612a2.258 2.258 0 0 0-2.25 2.25 2.258 2.258 0 0 0 2.25 2.25 2.258 2.258 0 0 0 2.25-2.25 2.258 2.258 0 0 0-2.25-2.25z" color="#000" font-family="sans-serif" font-weight="400" overflow="visible" style="line-height:normal;text-indent:0;text-align:start;text-decoration-line:none;text-decoration-style:solid;text-decoration-color:#000;text-transform:none;white-space:normal;isolation:auto;mix-blend-mode:normal;solid-color:#000;solid-opacity:1" transform="translate(-2660.5 -811.988)"/><path fill-rule="evenodd" d="M2670.992 844.112a.5.5 0 0 0-.492.508v3.992a.5.5 0 0 0 .5.5h7a.5.5 0 0 0 .5-.5v-3.992a.5.5 0 1 0-1 0v3.492h-6v-3.492a.5.5 0 0 0-.508-.508zm13.252-12.505a.5.5 0 0 0-.348.86l1 1a.5.5 0 0 0 .524.117l2.08-.752v3.281a.5.5 0 0 0 .5.5h7a.5.5 0 0 0 .5-.5v-3.992a.5.5 0 1 0-1 0v3.492h-6v-3.492a.5.5 0 0 0-.67-.47l-2.451.884-.775-.775a.5.5 0 0 0-.36-.153z" color="#000" font-family="sans-serif" font-weight="400" overflow="visible" style="line-height:normal;text-indent:0;text-align:start;text-decoration-line:none;text-decoration-style:solid;text-decoration-color:#000;text-transform:none;white-space:normal;isolation:auto;mix-blend-mode:normal;solid-color:#000;solid-opacity:1" transform="translate(-2660.5 -811.988)"/><path d="M2691.5 827.237a2.132 2.132 0 0 0-2.125 2.125c0 1.168.957 2.125 2.125 2.125a2.132 2.132 0 0 0 2.125-2.125 2.132 2.132 0 0 0-2.125-2.125z" color="#000" font-family="sans-serif" font-weight="400" overflow="visible" style="line-height:normal;text-indent:0;text-align:start;text-decoration-line:none;text-decoration-style:solid;text-decoration-color:#000;text-transform:none;white-space:normal;isolation:auto;mix-blend-mode:normal;solid-color:#000;solid-opacity:1" transform="translate(-2660.5 -811.988)"/></g></svg>