<svg xmlns="http://www.w3.org/2000/svg" viewBox="0 0 52 52"><path fill="#5b5e8b" d="M36.3 8.6v7.9h-.5V9.1H13.3v7.4h-.5V8.6z"/><path fill="#fcb73e" d="M14.3 8.8c0 .7-.6 1.3-1.3 1.3-.7 0-1.3-.6-1.3-1.3 0-.7.6-1.3 1.3-1.3.7 0 1.3.6 1.3 1.3z"/><path fill="#fd982e" d="M14.2 9.2c-.2.5-.6.9-1.2.9-.7 0-1.3-.6-1.3-1.3 0-.5.4-1 .9-1.2-.1.1-.1.3-.1.4 0 .7.6 1.3 1.3 1.3.2 0 .3 0 .4-.1z"/><path fill="#5b5e8b" d="M49.4 19.6v13.8c0 1.7-1.4 3-3 3H26.2c-1.7 0-3-1.4-3-3V19.6c0-1.7 1.4-3 3-3h20.1c1.7-.1 3.1 1.3 3.1 3z"/><path fill="#312e4b" d="M30.8 36.3h-4.6c-1.7 0-3-1.4-3-3V19.6c0-1.7 1.4-3 3-3h4.6c-1.7 0-3 1.4-3 3v13.8c0 1.6 1.4 2.9 3 2.9z"/><path fill="#deddff" d="M47.8 19.6v11.8c0 .8-.7 1.5-1.5 1.5H26.2c-.8 0-1.5-.7-1.5-1.5V19.6c0-.8.7-1.5 1.5-1.5h20.1c.9-.1 1.5.6 1.5 1.5z"/><path fill="#c6c6f7" d="M28.2 32.9h-2c-.8 0-1.5-.7-1.5-1.5V19.6c0-.8.7-1.5 1.5-1.5h2c-.8 0-1.5.7-1.5 1.5v11.8c0 .8.7 1.5 1.5 1.5z"/><path fill="#deddff" d="M37 34.6c0 .4-.3.7-.7.7-.4 0-.7-.3-.7-.7 0-.4.3-.7.7-.7.4 0 .7.3.7.7z"/><path fill="#5b5e8b" d="M31.8 39.7c1.9-.7 1.8-3.4 1.8-3.4h5.6s-.1 2.7 1.8 3.4h-9.2z"/><path fill="#312e4b" d="M33.5 37h5.7v-.6h-5.6c-.1-.1-.1.2-.1.6z"/><path fill="#c7754f" d="M46 40.1h2.4v5.4H46z"/><path fill="#ab604b" d="M3.6 40.1H6v5.4H3.6zM46 40.1h2.4v2.8H46z"/><path fill="#ab604b" d="M3.6 40.1H6v2.8H3.6z"/><path fill="#c7754f" d="M50 40.9c0 .6-.5 1.2-1.2 1.2H3.2c-.6 0-1.2-.5-1.2-1.2 0-.6.5-1.2 1.2-1.2h45.6c.7 0 1.2.6 1.2 1.2z"/><path fill="#ab604b" d="M10.6 42.1H3.2c-.6 0-1.2-.5-1.2-1.2 0-.6.5-1.2 1.2-1.2h7.4c-.6 0-1.2.5-1.2 1.2s.5 1.2 1.2 1.2z"/><path fill="#ffaf93" d="M34.3 25.9c0 1-.8 1.9-1.9 1.9-1 0-1.9-.8-1.9-1.9 0-1 .9-1.9 1.9-1.9 1 0 1.9.9 1.9 1.9zm8 0c0 1-.8 1.9-1.9 1.9-1 0-1.9-.8-1.9-1.9 0-1 .9-1.9 1.9-1.9 1 0 1.9.9 1.9 1.9zM33.4 31l.6 2.7h4.6l.6-2.7z"/><path fill="#65b9ff" d="M46.1 39.4v6.2H26.5v-6.2c0-2.4 2-4.4 4.4-4.4h10.9c2.3 0 4.3 2 4.3 4.4z"/><path fill="#3e7fff" d="M33.8 35c-2.4 0-4.4 2-4.4 4.4v6.2h-2.9v-6.2c0-2.4 2-4.4 4.4-4.4h2.9z"/><path fill="#deddff" d="M40.4 34.3v.7H32v-.7c0-.7.6-1.3 1.3-1.3H39c.8 0 1.4.6 1.4 1.3z"/><path fill="#c6c6f7" d="M34.6 33c-.7 0-1.3.6-1.3 1.3v.7H32v-.7c0-.7.6-1.3 1.3-1.3h1.3z"/><path fill="#c7754f" d="M40 30.5c-1 1.4-2.4 2-4.1 1.8-1.4-.2-2.4-1-3.2-2.1l-.4-.6c-1-2-1.4-4.1-1.4-6.3 0-1.4 1-2.9 2.1-3.1.6-.1 1.1-.5 1.6-.7.7-.4 1.5-.6 2.3-.4-.1 0-.2.1-.3.1 1.3.1 2.4.3 3.4 1 .6.4 1 1.1 1.2 1.8 1.2 4.4-.4 7.4-1.2 8.5z"/><path fill="#ab604b" d="M37.1 32.3h-1.2c-1.4-.2-2.4-1-3.2-2.1l-.4-.6c-1-2-1.4-4.1-1.4-6.3 0-1.4 1-2.9 2.1-3.1.6-.1 1.1-.5 1.6-.7.6-.3 1.4-.6 2.1-.4-.4.1-.7.2-1.1.4-.5.3-1 .6-1.6.7-1 .3-2 1.7-2 3.1 0 2.2.4 4.4 1.4 6.3l.4.6c.8 1.1 1.8 1.9 3.2 2.1h.1z"/><path fill="#e83d62" d="M43.3 40.1v5.5h-14v-5.5c0-.8.7-1.5 1.5-1.5h11c.8 0 1.5.6 1.5 1.5z"/><path fill="#ce2955" d="M33.4 38.6c-.8 0-1.5.7-1.5 1.5v5.5h-2.6v-5.5c0-.8.7-1.5 1.5-1.5h2.6z"/><path fill="#deddff" d="M22.4 30.2v9.5H3.6v-9.5c0-1.7 1.4-3 3-3h12.7c1.8 0 3.1 1.3 3.1 3z"/><path fill="#c6c6f7" d="M9 27.2c-1.7 0-3 1.4-3 3v9.5H3.6v-9.5c0-1.7 1.4-3 3-3H9z"/><path fill="#5b5e8b" d="M9.4 25.9h7.2v1.3H9.4z"/><path fill="#deddff" d="M20 18.9v5.8c0 .7-.5 1.2-1.2 1.2H7.3c-.7 0-1.2-.5-1.2-1.2v-5.8c0-.7.5-1.2 1.2-1.2h11.5c.6 0 1.2.5 1.2 1.2z"/><path fill="#c6c6f7" d="M8.7 25.9H7.3c-.7 0-1.2-.5-1.2-1.2v-5.8c0-.7.5-1.2 1.2-1.2h1.4c-.7 0-1.2.5-1.2 1.2v5.8c0 .6.5 1.2 1.2 1.2z"/><path fill="#5b5e8b" d="M21.6 20.4v2.8c0 .3-.3.6-.6.6h-1v-4h1c.3 0 .6.2.6.6z"/><path fill="#312e4b" d="M20 19.8h.4v4H20z"/><path fill="#5b5e8b" d="M20.2 15.8h.7v3.9h-.7z"/><path fill="#312e4b" d="M20.2 19.3h.7v.4h-.7z"/><circle cx="20.5" cy="15.5" r=".9" fill="#e83d62"/><path fill="#ce2955" d="M21.4 15.8c-.1.3-.4.6-.8.6-.5 0-.9-.4-.9-.9 0-.4.3-.7.6-.8v.3c0 .5.4.9.9.9 0-.1.1-.1.2-.1z"/><path fill="#5b5e8b" d="M4.4 20.4v2.8c0 .3.3.6.6.6h1v-4H5c-.3 0-.6.2-.6.6z"/><path fill="#312e4b" d="M5.6 19.8H6v4h-.4z"/><path fill="#5b5e8b" d="M5.2 15.8h.7v3.9h-.7z"/><path fill="#312e4b" d="M5.2 19.3h.7v.4h-.7z"/><circle cx="5.5" cy="15.5" r=".9" fill="#e83d62"/><path fill="#ce2955" d="M4.7 15.8c.1.3.4.6.8.6.5 0 .9-.4.9-.9 0-.4-.3-.7-.6-.8v.3c0 .5-.4.9-.9.9 0-.1-.1-.1-.2-.1z"/><path fill="#312e4b" d="M10.8 21c0 .7-.5 1.2-1.2 1.2s-1.2-.6-1.2-1.2.5-1.2 1.2-1.2 1.2.5 1.2 1.2z"/><path fill="#deddff" d="M10.2 21c0 .3-.2.5-.5.5s-.6-.2-.6-.5.2-.5.5-.5.6.2.6.5z"/><path fill="#312e4b" d="M17.6 21c0 .7-.5 1.2-1.2 1.2-.6 0-1.2-.5-1.2-1.2 0-.6.5-1.2 1.2-1.2s1.2.5 1.2 1.2z"/><path fill="#deddff" d="M17 21c0 .3-.2.5-.5.5s-.5-.2-.5-.5.2-.5.5-.5c.2-.1.5.2.5.5z"/><path fill="#fcb73e" d="M15.4 23.5v1c0 .2-.1.3-.3.3h-4.6c-.2 0-.3-.1-.3-.3v-1c0-.2.1-.3.3-.3H15c.2 0 .4.1.4.3z"/><path fill="#e87f21" d="M13 23.2h.3v1.7H13zM13.7 23.2h.3v1.7h-.3zM14.5 23.2h.3v1.7h-.3zM12.2 23.2h.3v1.7h-.3zM11.5 23.2h.3v1.7h-.3zM10.7 23.2h.3v1.7h-.3z"/><path fill="#65b9ff" d="M18.9 33.6c0 .7-.6 1.2-1.2 1.2H8.4c-.7 0-1.2-.6-1.2-1.2 0-.3.1-.7.4-.9.2-.2.5-.4.9-.4h9.2c.6 0 1.2.6 1.2 1.3z"/><path fill="#3e7fff" d="M9.9 34.8H8.4c-.7 0-1.2-.6-1.2-1.2 0-.3.1-.7.4-.9.2-.2.5-.4.9-.4H10c-.3 0-.7.1-.9.4-.2.2-.4.5-.4.9 0 .6.6 1.2 1.2 1.2z"/><path fill="#deddff" d="M12.9 34.4h-.1l-1.2-1.2-.6.6H9.5c-.1 0-.2-.1-.2-.2s.1-.2.2-.2h1.2l.7-.7c.1-.1.2-.1.2 0l1.2 1.2.9-.9h.1s.1 0 .1.1l.7.8.5-.5.1-.1h1.3c.1 0 .2.1.2.2s-.1.2-.2.2h-1.2l-.5.6-.1.1s-.1 0-.1-.1l-.7-.8-.9.8c0 .1-.1.1-.1.1z"/><path fill="#fcb73e" d="M8.3 30.6c0 .3-.3.6-.6.6s-.6-.2-.6-.6c0-.3.3-.6.6-.6.4 0 .6.3.6.6z"/><path fill="#fd982e" d="M8.3 30.8c-.1.2-.3.4-.6.4s-.6-.2-.6-.6c0-.3.2-.5.4-.6v.2c0 .3.3.6.6.6h.2z"/><path fill="#e83d62" d="M10.5 30.6c0 .3-.3.6-.6.6s-.6-.2-.6-.6c0-.3.3-.6.6-.6.4 0 .6.3.6.6z"/><path fill="#ce2955" d="M10.5 30.8c-.1.2-.3.4-.6.4s-.6-.2-.6-.6c0-.3.2-.5.4-.6v.2c0 .3.3.6.6.6h.2z"/><path fill="#65b9ff" d="M12.8 30.6c0 .3-.3.6-.6.6s-.6-.2-.6-.6c0-.3.3-.6.6-.6s.6.3.6.6z"/><path fill="#3e7fff" d="M12.7 30.8c-.1.2-.3.4-.6.4s-.6-.2-.6-.6c0-.3.2-.5.4-.6v.2c0 .3.3.6.6.6h.2z"/><path fill="#ce2955" d="M13.8 16.5v1.1h-1.6v-1.1c0-.4.4-.8.8-.8.5.1.8.4.8.8z"/><path fill="#e83d62" d="M28.7 7.3v3.1c0 .5-.4.8-.8.8h-6.8c-.4 0-.8-.4-.8-.8V7.3c0-.4.4-.8.8-.8h6.8c.5 0 .8.3.8.8z"/><path fill="#ce2955" d="M22.5 11.2h-1.4c-.4 0-.8-.4-.8-.8V7.3c0-.4.4-.8.8-.8h1.4c-.4 0-.8.4-.8.8v3.1c0 .4.3.8.8.8z"/><path fill="#fcb73e" d="M37.3 8.8c0 .7-.6 1.3-1.3 1.3-.7 0-1.3-.6-1.3-1.3 0-.7.6-1.3 1.3-1.3.7 0 1.3.6 1.3 1.3z"/><path fill="#fd982e" d="M37.2 9.2c-.2.5-.6.9-1.2.9-.7 0-1.3-.6-1.3-1.3 0-.5.4-1 .9-1.2-.1.1-.1.3-.1.4 0 .7.6 1.3 1.3 1.3.1 0 .3 0 .4-.1z"/><path fill="#deddff" d="m21.8 9 1.7-.9v.3l-1.4.7 1.4.7v.2l-1.7-.9V9zm1.9 1.2 1-2.6h.3l-1 2.6h-.3zm3.2-1-1.7.8v-.2l1.4-.7-1.4-.7v-.3l1.7.9v.2z"/></svg>