<svg xmlns="http://www.w3.org/2000/svg" viewBox="0 0 64 64"><circle cx="32" cy="32" r="32" fill="#e24b4b"/><path fill="#fff" d="M42.11 36.1c-1.31 0-2.38 1.07-2.38 2.38 0 5.1-4.15 9.26-9.26 9.26h-.07c-5.1 0-9.26-4.15-9.26-9.26 0-1.31-1.07-2.38-2.38-2.38-1.31 0-2.38 1.07-2.38 2.38 0 7.73 6.29 14.02 14.02 14.02h.07c7.73 0 14.02-6.29 14.02-14.02 0-1.31-1.07-2.38-2.38-2.38zm3.45-22.55c-2.74-2.74-7.2-2.74-9.94 0l-8.47 8.47-.23-.23a1.46 1.46 0 0 0-2.05 0c-.57.57-.57 1.49 0 2.06l10.38 10.38c.28.28.66.42 1.03.42s.74-.14 1.03-.42c.56-.56.56-1.49 0-2.05l-.23-.23 8.47-8.47c2.75-2.73 2.75-7.19.01-9.93z"/><path fill="#fff" d="M29.86 44.36c1.62 0 3.08-.84 3.91-2.23.82-1.39.85-3.08.08-4.5l-2.71-4.95c-.26-.46-.74-.76-1.27-.76s-1.02.29-1.27.76l-2.71 4.95c-.78 1.42-.76 3.11.08 4.5.8 1.4 2.26 2.23 3.89 2.23z"/></svg>