<svg xmlns="http://www.w3.org/2000/svg" data-name="Layer 1" viewBox="0 0 128 128"><path fill="#e1ebf4" d="M41.36 90.03a6.308 6.308 0 0 0-.76.1A8.044 8.044 0 0 0 33.99 98v11.32l-12.74-6.65s-3.17-5.75-1.67-9.59c1.5-3.83 7.59-8.41 7.59-8.41s6.42-2.79 10.82 1.83Z"/><path fill="#81d9e3" d="M107.88 105v17.38l-1.89 3.24H88V104l2-1.75h15.38l2.5 2.75z"/><path fill="#fc785e" d="m104.5 80.73-.36-.35-1.56-1.57a4.026 4.026 0 0 0-.38-.34c-.03-.03-.06-.05-.08-.07a.17.17 0 0 0-.06-.06l-.07-.07-.06-.05a9.332 9.332 0 0 0-12.52.59l-4.68 4.69A9.218 9.218 0 0 0 82 90.08a1.147 1.147 0 0 0 .01.19A7.921 7.921 0 0 0 80 90h-2v-2a10.016 10.016 0 0 0-10-10H53.99a10.006 10.006 0 0 0-9.49 6.88l-3.87-3.56a2.481 2.481 0 0 0-.3-.25 15.298 15.298 0 0 0-8.25-3.04c-.03 0-.05-.01-.08-.01-.27-.01-.55-.02-.83-.02-.25 0-.52.03-.78.04h-.02c-.44-15.91 12.78-26.91 16.77-29.87.32.41.65.82 1 1.21.38.45.79.89 1.21 1.31a25.033 25.033 0 0 0 10.68 6.32L67 65.62l5.74-8.29a24.95 24.95 0 0 0 11.76-6.51c.43-.42.84-.85 1.24-1.3.27-.3.53-.62.79-.94a5.974 5.974 0 0 1 1.47.17c5.62 1.47 14 14.63 15.5 22a64.982 64.982 0 0 1 1 9.98Z"/><path fill="#2d4356" d="M67 0a21.025 21.025 0 0 0-21.01 21v12A21.005 21.005 0 0 0 88 33V21A21.023 21.023 0 0 0 67 0Zm17 33a17.005 17.005 0 0 1-34.01 0V21A17.031 17.031 0 0 1 65.25 4.09a4.97 4.97 0 0 1 2.65 1.46 4.21 4.21 0 0 1 0 5.68 2.375 2.375 0 0 1-3.45 0 2.002 2.002 0 0 0-2.91 2.75 6.328 6.328 0 0 0 9.27 0 8.284 8.284 0 0 0 1.36-9.17A17.036 17.036 0 0 1 84 21Z"/><path fill="#e1ebf4" d="M84 21v12a17.005 17.005 0 0 1-34.01 0V21A17.031 17.031 0 0 1 65.25 4.09a4.97 4.97 0 0 1 2.65 1.46 4.21 4.21 0 0 1 0 5.68 2.375 2.375 0 0 1-3.45 0 2.002 2.002 0 0 0-2.91 2.75 6.328 6.328 0 0 0 9.27 0 8.284 8.284 0 0 0 1.36-9.17A17.036 17.036 0 0 1 84 21Z"/><circle cx="56.994" cy="32" r="2" fill="#2d4356"/><circle cx="76.996" cy="32" r="2" fill="#2d4356"/><path fill="#2d4356" d="M64.995 45h4a2 2 0 1 0 0-4h-4a2 2 0 1 0 0 4zM35.447 87.408l3.478 3.206A7.956 7.956 0 0 1 41.993 90h2.168l-6.235-5.732a11.194 11.194 0 0 0-8.95-2.044 11.479 11.479 0 0 0-7.612 5.529s-2.51 4.594-2.547 4.728a12.242 12.242 0 0 0-.335 7.795 11.654 11.654 0 0 0 5.846 7.177l9.664 3.823v-4.297l-7.91-3.123a7.695 7.695 0 0 1-3.76-4.7 8.227 8.227 0 0 1-.29-2.99l.314.197a2.031 2.031 0 0 0 2.756-.635 2.001 2.001 0 0 0-.636-2.757l-1.102-.69 1.401-2.419.81.514a2.04 2.04 0 0 0 2.761-.616 2 2 0 0 0-.616-2.761l-.086-.055a7.262 7.262 0 0 1 2.138-.8 7.098 7.098 0 0 1 5.675 1.264zM104 100h-7.14a5.313 5.313 0 0 0 2.9-1.47l4.68-4.69a5.3 5.3 0 0 0 0-7.51l-4.68-4.69a5.33 5.33 0 0 0-7.52 0l-4.69 4.69a5.323 5.323 0 0 0 0 7.51l4.69 4.69a5.313 5.313 0 0 0 2.9 1.47H88v4h16a2.006 2.006 0 0 1 2 2v16a2.006 2.006 0 0 1-2 2H88a7.972 7.972 0 0 1-1.03 3.91A7.043 7.043 0 0 0 88 128h16a6.005 6.005 0 0 0 6-6v-16a6.005 6.005 0 0 0-6-6zm-8.93-4.3-4.69-4.69a1.328 1.328 0 0 1 0-1.85l4.69-4.69a1.322 1.322 0 0 1 1.86 0s4.67 4.67 4.68 4.69a1.319 1.319 0 0 1 0 1.85l-4.68 4.69a1.322 1.322 0 0 1-1.86 0z"/><path fill="#e1ebf4" d="m101.61 91.01-4.68 4.69a1.322 1.322 0 0 1-1.86 0s-4.68-4.68-4.69-4.69a1.328 1.328 0 0 1 0-1.85l4.69-4.69a1.322 1.322 0 0 1 1.86 0s4.67 4.67 4.68 4.69a1.319 1.319 0 0 1 0 1.85Z"/><path fill="#2d4356" d="M80 94h-6v-6a6.011 6.011 0 0 0-6-6H53.99a6.011 6.011 0 0 0-6 6v6h-6a4.005 4.005 0 0 0-4 4v26a4.005 4.005 0 0 0 4 4H80a4.005 4.005 0 0 0 4-4V98a4.005 4.005 0 0 0-4-4Zm-17.01-8H68a2.006 2.006 0 0 1 2 2v6h-7.01Zm-4 38h-17v-11h17Zm0-15h-17V98h17Zm0-15h-7v-6a2.006 2.006 0 0 1 2-2h5ZM80 124H62.99v-11H80Zm0-15H62.99V98H80Z"/><path fill="#e1ebf4" d="M70 88v6h-7.01v-8H68a2.006 2.006 0 0 1 2 2zm-11.01-2v8h-7v-6a2.006 2.006 0 0 1 2-2z"/><path fill="#ffdb80" d="M41.99 113h17v11h-17zM62.99 113H80v11H62.99zM62.99 98H80v11H62.99zM41.99 98h17v11h-17z"/><path fill="#2d4356" d="M96 108a6 6 0 1 0 6 6 6.005 6.005 0 0 0-6-6Zm0 8a2 2 0 1 1 2-2 2.006 2.006 0 0 1-2 2Z"/><circle cx="96" cy="114" r="2" fill="#e1ebf4"/><path fill="#2d4356" d="M62.146 57.524a24.847 24.847 0 0 1-8.502-3.403L64.09 65.606a3.692 3.692 0 0 0 5.794-.018l8.583-10.385a24.804 24.804 0 0 1-7.192 2.423l-4.301 5.205Z"/><path fill="#9fa5aa" d="M33.99 104.98v2l-7.91-3.12a7.725 7.725 0 0 1-3.76-4.7 8.438 8.438 0 0 1-.29-2.99l.09.05a6.042 6.042 0 0 0 .2.94 7.725 7.725 0 0 0 3.76 4.7Z" opacity=".5"/><path fill="#0f423c" d="M106 120v2a2.006 2.006 0 0 1-2 2H88v-2h16a2.006 2.006 0 0 0 2-2Z" opacity=".3"/><path fill="#fff" d="M68.88 9.39a4.027 4.027 0 0 0-.98-1.84 4.97 4.97 0 0 0-2.65-1.46A17.031 17.031 0 0 0 49.99 23v-2A17.031 17.031 0 0 1 65.25 4.09a4.97 4.97 0 0 1 2.65 1.46 4.209 4.209 0 0 1 .98 3.84zM84 21v2A17.029 17.029 0 0 0 72.87 7.05a8.203 8.203 0 0 0-.7-2.24A17.036 17.036 0 0 1 84 21z" opacity=".5"/><path fill="#9fa5aa" d="M84 31v2a17.005 17.005 0 0 1-34.01 0v-2A17.005 17.005 0 0 0 84 31Z" opacity=".5"/><path fill="#f9dbd7" d="M49.35 50.69a6.628 6.628 0 0 1-1.07.86c-3.96 2.41-15.22 10.64-16.2 26.48-.03 0-.05-.01-.08-.01.11-15.83 10.39-24.56 15.2-27.78a4.077 4.077 0 0 1 .94-.86c.38.45.79.89 1.21 1.31Z" opacity=".3"/><path fill="#fff" d="M38.92 90.61a7.906 7.906 0 0 1 1.68-.48 7.898 7.898 0 0 0-3.04 1.23l-2.11-1.95a7.141 7.141 0 0 0-5.68-1.27 7.434 7.434 0 0 0-1.14.33 1.975 1.975 0 0 0-.91-1.47l-.09-.06a7.55 7.55 0 0 1 2.14-.8 7.141 7.141 0 0 1 5.68 1.27zm62.69.4-.07.08c-.58-.59-4.61-4.62-4.61-4.62a1.322 1.322 0 0 0-1.86 0l-4.62 4.62a.607.607 0 0 1-.07-.08 1.328 1.328 0 0 1 0-1.85l4.69-4.69a1.322 1.322 0 0 1 1.86 0s4.67 4.67 4.68 4.69a1.319 1.319 0 0 1 0 1.85z" opacity=".5"/><path fill="#e8fbfc" d="M106 106v2a2.006 2.006 0 0 0-2-2H88v-2h16a2.006 2.006 0 0 1 2 2Z" opacity=".4"/><path fill="#fff" d="M58.99 86v2h-5a2.006 2.006 0 0 0-2 2v-2a2.006 2.006 0 0 1 2-2zM70 88v2a2.006 2.006 0 0 0-2-2h-5.01v-2H68a2.006 2.006 0 0 1 2 2z" opacity=".5"/><path fill="#f9edd2" d="M62.99 98H80v2H62.99zM41.99 98h17v2h-17z" opacity=".5"/><path fill="#ad9359" d="M41.99 122h17v2h-17zM62.99 122H80v2H62.99z" opacity=".45"/><path fill="#f9dbd7" d="m101.99 78.27-.06-.05c-.91-15.96-12.25-24.25-16.22-26.67a8.508 8.508 0 0 1-1.21-.73c.43-.42.84-.85 1.24-1.3a3.943 3.943 0 0 1 1.05.72c4.84 3.24 15.2 12.05 15.2 28.03zm.56.55-.43-.42c.02.02.05.04.08.07z" opacity=".3"/><path fill="#2d4356" d="M32 78.046c.106-17.158 12.163-25.987 16.277-28.497a25.145 25.145 0 0 1-2.396-3.184c-4.995 3.223-17.88 13.355-17.877 31.984.06-.013.115-.033.174-.045a15.02 15.02 0 0 1 3.823-.258zm69.99.222c.145.127 3.829 3.788 3.829 3.788 1.864-21.003-12.392-32.26-17.71-35.691a25.151 25.151 0 0 1-2.396 3.184c4.134 2.523 16.275 11.417 16.278 28.72z"/></svg>