<svg xmlns="http://www.w3.org/2000/svg" fill-rule="evenodd" clip-rule="evenodd" image-rendering="optimizeQuality" shape-rendering="geometricPrecision" text-rendering="geometricPrecision" viewBox="0 0 1707 1707"><path fill="#e4eaf8" d="M1474 1584c-8,0 -15,-4 -18,-11l-1206 0c-9,19 -37,12 -37,-9l0 -891c0,-19 21,-25 32,-16l610 -446 604 448c11,-11 35,-7 35,14l0 891c0,11 -9,20 -20,20z"/><path fill="#ff5050" d="M142 741c-94,0 -133,-121 -58,-176l712 -522c35,-26 80,-26 115,0l711 522c44,32 53,93 21,136 -32,43 -93,53 -136,21l-654 -480 -654 480c-16,12 -36,19 -57,19z"/><path fill="#335f8c" d="M853 1497c-3,0 -6,-1 -9,-3 -175,-96 -403,-248 -377,-438 1,-3 2,-5 3,-8 114,-182 -3,-281 -8,-285 -9,-8 -10,-21 -1,-30l127 -127c6,-6 15,-8 23,-4 152,78 333,78 485,0 7,-4 17,-2 23,4l127 127c9,9 8,23 -1,30 -5,4 -122,103 -9,285 2,3 3,5 3,8 27,190 -202,342 -376,438 -3,2 -6,3 -10,3z"/><path fill="#5684b9" d="M853 1376c-3,0 -7,-1 -10,-3 -177,-105 -268,-200 -273,-282 0,-20 107,-162 24,-324 -9,-18 21,-47 38,-40 143,52 299,52 442,0 17,-7 47,22 38,41 -82,163 25,303 24,323 -4,82 -96,177 -273,282 -3,2 -6,3 -10,3z"/><path fill="#fefefe" d="M799 1196c-15,0 -29,-6 -39,-16l-71 -72c-52,-51 26,-129 77,-77l33 32 141 -142c51,-51 129,27 78,78l-180 181c-11,10 -25,16 -39,16z"/><polygon fill="#e4eaf8" points="1455 156 1228 156 1228 276 1455 442"/><path fill="#5b5d6e" d="M1583 1707l-1459 0c-11,0 -20,-9 -20,-20l0 -123c0,-11 9,-20 20,-20l1459 0c11,0 20,9 20,20l0 123c0,11 -9,20 -20,20z"/><path fill="#ff5050" d="M1518 0l-353 0c-11,0 -20,9 -20,20l0 122c0,28 42,20 83,20l227 0c41,0 83,8 83,-20l0 -122c0,-11 -9,-20 -20,-20z"/></svg>