<svg xmlns="http://www.w3.org/2000/svg" enable-background="new 0 0 66 66" viewBox="0 0 66 66"><linearGradient id="a" x1="33" x2="33" y1="1.254" y2="66.361" gradientUnits="userSpaceOnUse"><stop offset="0" stop-color="#81cd4f"/><stop offset="1" stop-color="#48952d"/></linearGradient><circle cx="33" cy="33" r="32" fill="url(#a)"/><circle cx="33" cy="33" r="27.2" fill="#073c5c"/><linearGradient id="b" x1="45.978" x2="54.867" y1="181.19" y2="181.19" gradientTransform="rotate(40.002 244.605 94.192)" gradientUnits="userSpaceOnUse"><stop offset="0" stop-color="#ffc0a1"/><stop offset="1" stop-color="#fd9f79"/></linearGradient><path fill="url(#b)" d="M27.8,53.1c6.8-6.3,25.1-25.7,26-26.8c1.6-1.9,1.3-4.7-0.5-6.3c-1.9-1.6-4.7-1.3-6.3,0.5
				c-0.9,1.1-16.8,22.5-21.9,30.3L27.8,53.1z"/><linearGradient id="c" x1="46.709" x2="54.137" y1="202.047" y2="202.047" gradientTransform="rotate(40.002 244.605 94.192)" gradientUnits="userSpaceOnUse"><stop offset="0" stop-color="#ffc0a1"/><stop offset="1" stop-color="#fd9f79"/></linearGradient><path fill="url(#c)" d="M29.4,54.4L29.4,54.4c-0.4,0.5-1.2,0.6-1.7,0.1l-3.9-3.3c-0.5-0.4-0.6-1.2-0.1-1.7h0
				c0.4-0.5,1.2-0.6,1.7-0.1l3.9,3.3C29.7,53.1,29.8,53.9,29.4,54.4z"/><linearGradient id="d" x1="369.701" x2="378.59" y1="-90.446" y2="-90.446" gradientTransform="scale(-1 1) rotate(40.002 .303 -576.98)" gradientUnits="userSpaceOnUse"><stop offset="0" stop-color="#ffc0a1"/><stop offset="1" stop-color="#fd9f79"/></linearGradient><path fill="url(#d)" d="M38.2,53.1c-6.8-6.3-25.1-25.7-26-26.8c-1.6-1.9-1.3-4.7,0.5-6.3c1.9-1.6,4.7-1.3,6.3,0.5
				c0.9,1.1,16.8,22.5,21.9,30.3L38.2,53.1z"/><linearGradient id="e" x1="370.431" x2="377.859" y1="-69.588" y2="-69.588" gradientTransform="scale(-1 1) rotate(40.002 .303 -576.98)" gradientUnits="userSpaceOnUse"><stop offset="0" stop-color="#ffc0a1"/><stop offset="1" stop-color="#fd9f79"/></linearGradient><path fill="url(#e)" d="M36.6,54.4L36.6,54.4c0.4,0.5,1.2,0.6,1.7,0.1l3.9-3.3c0.5-0.4,0.6-1.2,0.1-1.7l0,0
				c-0.4-0.5-1.2-0.6-1.7-0.1l-3.9,3.3C36.3,53.1,36.2,53.9,36.6,54.4z"/><g><linearGradient id="f" x1="53.221" x2="66.921" y1="50.242" y2="65.996" gradientUnits="userSpaceOnUse"><stop offset="0" stop-color="#0bd3e3"/><stop offset="1" stop-color="#017ccc"/></linearGradient><path fill="url(#f)" d="M50.5,45c-0.6,3.4-1.1,6.7-1.7,10.1c4.3,2.3,8.4,4.8,12.2,7.6c-0.5-2.3-1.1-4.6-1.7-7c1.6-1,3.2-1.9,4.9-2.7
			C59.9,50,55.3,47.3,50.5,45z"/><linearGradient id="g" x1="45.718" x2="59.919" y1="63.754" y2="42.239" gradientUnits="userSpaceOnUse"><stop offset="0" stop-color="#0bd3e3"/><stop offset="1" stop-color="#017ccc"/></linearGradient><path fill="url(#g)" d="M62.5,44.1c-0.9,3.3-1.8,6.5-2.7,9.8l-11,1.2c0.6-3.4,1.1-6.7,1.7-10.1C54.4,44.2,58.4,44.5,62.5,44.1z"/><linearGradient id="h" x1="-890.441" x2="-876.741" y1="50.242" y2="65.996" gradientTransform="matrix(-1 0 0 1 -877.662 0)" gradientUnits="userSpaceOnUse"><stop offset="0" stop-color="#0bd3e3"/><stop offset="1" stop-color="#017ccc"/></linearGradient><path fill="url(#h)" d="M15.5,45c0.6,3.4,1.1,6.7,1.7,10.1c-4.3,2.3-8.4,4.8-12.2,7.6c0.5-2.3,1.1-4.6,1.7-7c-1.6-1-3.2-1.9-4.9-2.7
			C6.1,50,10.7,47.3,15.5,45z"/><linearGradient id="i" x1="-897.945" x2="-883.743" y1="63.754" y2="42.239" gradientTransform="matrix(-1 0 0 1 -877.662 0)" gradientUnits="userSpaceOnUse"><stop offset="0" stop-color="#0bd3e3"/><stop offset="1" stop-color="#017ccc"/></linearGradient><path fill="url(#i)" d="M3.5,44.1c0.9,3.3,1.8,6.5,2.7,9.8l11,1.2c-0.6-3.4-1.1-6.7-1.7-10.1C11.6,44.2,7.6,44.5,3.5,44.1z"/><linearGradient id="j" x1="33" x2="33" y1="56.526" y2="28.109" gradientUnits="userSpaceOnUse"><stop offset="0" stop-color="#0bd3e3"/><stop offset="1" stop-color="#017ccc"/></linearGradient><path fill="url(#j)" d="M62.5,44.1c-0.9,3.3-1.8,6.5-2.7,9.8C42.3,49,23.7,49,6.2,53.9c-0.9-3.3-1.8-6.5-2.7-9.8
			C22.8,38.7,43.2,38.7,62.5,44.1z"/></g><g><path fill="#edf1f4" d="M15.4 44.4c-.3.1-.5.1-.8.1 0-.2-.1-.4-.1-.6 1-.2 1.5-.2 2.5-.4 0 .2 0 .4.1.6-.3 0-.5.1-.8.1.3 1.8.4 2.6.6 4.4-.3 0-.5.1-.8.1C15.8 47 15.7 46.1 15.4 44.4zM18.1 43.4c.8-.1 1.2-.1 1.9-.2 0 .2 0 .4.1.6-.5.1-.7.1-1.1.1.1.6.1.9.2 1.5.3 0 .5-.1.9-.1 0 .2 0 .4.1.6-.3 0-.5.1-.9.1.1.7.1 1 .2 1.7.5-.1.7-.1 1.1-.1 0 .2 0 .4.1.6-.8.1-1.1.1-1.9.2C18.5 46.4 18.4 45.4 18.1 43.4zM21.9 43c.4 0 .5-.1.9-.1.6 2 .8 3 1.4 4.9-.3 0-.5 0-.8.1-.1-.4-.1-.5-.2-.9-.4 0-.6 0-.9.1 0 .4 0 .5 0 .9-.3 0-.5 0-.8.1C21.6 46 21.7 45 21.9 43zM23 46.4c-.2-1-.3-1.5-.6-2.5 0 0 0 0 0 0-.1 1-.1 1.5-.1 2.5C22.6 46.5 22.7 46.5 23 46.4zM24.9 42.7c.4 0 .6 0 1-.1.2.8.4 1.1.6 1.9.1.2.1.4.2.6 0 .2.1.4.1.5 0 0 0 0 0 0 0-.2 0-.4.1-.6 0-.2 0-.4.1-.6.2-.8.2-1.2.4-2 .4 0 .6 0 1 0 .1 2 .1 3 .2 5-.3 0-.4 0-.7 0 0-.7 0-1-.1-1.7 0-.3 0-.5 0-.7 0-.2 0-.5 0-.6 0-.2 0-.4 0-.5 0-.2 0-.3 0-.4 0 0 0 0-.1 0-.3 1.3-.4 2-.6 3.3-.2 0-.3 0-.5 0-.4-1.3-.6-1.9-1-3.2 0 0 0 0-.1 0 0 .1 0 .2.1.4 0 .2 0 .3.1.5 0 .2 0 .4.1.6 0 .2 0 .5.1.7 0 .7.1 1 .1 1.7-.3 0-.4 0-.7 0C25.1 45.7 25 44.7 24.9 42.7zM31.9 42.4c.3 0 .5 0 .8 0 .1 0 .2 0 .3 0 .1 0 .2 0 .4.1.1 0 .2.1.3.1.1.1.2.2.3.3.1.1.2.3.2.4.1.2.1.4.1.6 0 .1 0 .1 0 .2 0 .3 0 .5-.1.7 0 .2-.1.4-.2.5-.1.1-.2.2-.3.3-.1.1-.2.1-.3.2-.1 0-.2.1-.3.1-.1 0-.2 0-.3 0 0 0 0 0-.1 0 0 .6 0 .9 0 1.5-.3 0-.5 0-.8 0C32 45.5 31.9 44.5 31.9 42.4zM32.8 45.4c.1 0 .3 0 .4-.1.1 0 .2-.1.2-.2s.1-.2.1-.3c0-.1 0-.3 0-.5 0-.2 0-.3 0-.5 0-.1 0-.3 0-.4 0-.1-.1-.2-.1-.3-.1-.1-.1-.1-.2-.2C33 43 32.9 43 32.8 43c0 0 0 0 0 0C32.7 43.9 32.7 44.4 32.8 45.4 32.7 45.4 32.8 45.4 32.8 45.4zM35.6 42.5c.3 0 .5 0 .8 0-.1 1.8-.1 2.7-.1 4.4.4 0 .6 0 1 0 0 .2 0 .4 0 .6-.7 0-1.1 0-1.8-.1C35.5 45.5 35.5 44.5 35.6 42.5zM39.2 42.6c.4 0 .6 0 .9.1.3 2 .4 3 .6 5.1-.3 0-.5 0-.8 0 0-.4-.1-.5-.1-.9-.4 0-.6 0-.9-.1-.1.4-.1.5-.2.9-.3 0-.5 0-.8 0C38.5 45.6 38.7 44.6 39.2 42.6zM39.8 46.2c-.1-1-.1-1.5-.2-2.5 0 0 0 0 0 0-.2 1-.3 1.5-.5 2.5C39.4 46.2 39.5 46.2 39.8 46.2zM42.6 46.2c-.3-1.4-.5-2.1-.8-3.4.3 0 .5 0 .8.1.2 1 .3 1.5.4 2.4 0 0 0 0 0 0 .3-.9.5-1.4.8-2.3.3 0 .5 0 .8.1-.6 1.3-.8 1.9-1.4 3.2-.1.7-.1 1-.1 1.7-.3 0-.5 0-.8-.1C42.5 47.2 42.5 46.9 42.6 46.2zM45.8 43.1c.8.1 1.2.1 1.9.2 0 .2 0 .4-.1.6-.5-.1-.7-.1-1.1-.1-.1.6-.1.9-.2 1.5.3 0 .5.1.9.1 0 .2 0 .4-.1.6-.3 0-.5-.1-.9-.1-.1.7-.1 1-.2 1.7.5.1.7.1 1.1.1 0 .2 0 .4-.1.6-.8-.1-1.1-.1-1.9-.2C45.5 46.1 45.6 45.1 45.8 43.1zM49 43.5c.3 0 .5.1.9.1.1 0 .2 0 .3.1.1 0 .2.1.3.1s.2.1.3.2c.1.1.2.2.3.3.1.1.1.3.1.4 0 .2 0 .4 0 .6 0 0 0 .1 0 .1-.1.4-.2.7-.3.9-.1.2-.3.4-.6.4.2.8.3 1.3.5 2.1-.3-.1-.5-.1-.8-.1-.2-.8-.2-1.2-.4-2-.1 0-.2 0-.3 0-.1.7-.2 1.1-.3 1.9-.3 0-.4-.1-.7-.1C48.5 46.5 48.7 45.5 49 43.5zM49.5 46.2c.1 0 .3 0 .3 0 .1 0 .2-.1.2-.1.1-.1.1-.1.2-.3 0-.1.1-.2.1-.4 0-.2 0-.2.1-.4 0-.1 0-.2 0-.3 0-.1 0-.2-.1-.2 0-.1-.1-.1-.2-.2-.1 0-.2-.1-.4-.1 0 0-.1 0-.1 0-.1.8-.2 1.2-.3 2C49.4 46.2 49.4 46.2 49.5 46.2z"/></g><g><linearGradient id="k" x1="33" x2="33" y1="9.608" y2="29.076" gradientUnits="userSpaceOnUse"><stop offset="0" stop-color="#c6def6"/><stop offset="1" stop-color="#8cc3ea"/></linearGradient><path fill="url(#k)" d="M42.7,19c0,5.4-4.3,9.7-9.7,9.7c-5.4,0-9.7-4.3-9.7-9.7c0-5.4,4.3-9.7,9.7-9.7C38.4,9.3,42.7,13.6,42.7,19z"/><linearGradient id="l" x1="37.555" x2="37.555" y1="11.121" y2="26.821" gradientUnits="userSpaceOnUse"><stop offset="0" stop-color="#fe9045"/><stop offset="1" stop-color="#ea581f"/></linearGradient><path fill="url(#l)" d="M39.3,26.3L39.3,26.3c-0.2,0.2-0.4,0.4-0.7,0.6c-1.8-1.9-2.9-4.8-2.9-7.9c0-3.1,1.1-6,2.9-7.9
			c0.2,0.2,0.5,0.4,0.7,0.5l0,0c-1.7,1.8-2.7,4.4-2.7,7.3C36.6,21.9,37.6,24.5,39.3,26.3z"/><linearGradient id="m" x1="28.444" x2="28.444" y1="11.267" y2="26.834" gradientUnits="userSpaceOnUse"><stop offset="0" stop-color="#fe9045"/><stop offset="1" stop-color="#ea581f"/></linearGradient><path fill="url(#m)" d="M30.2,19c0,3.1-1.1,5.9-2.9,7.9c-0.2-0.2-0.5-0.4-0.7-0.5l0,0c1.7-1.8,2.7-4.4,2.7-7.3c0-2.9-1-5.5-2.7-7.3
			l0,0c0.2-0.2,0.5-0.4,0.7-0.5C29.2,13,30.2,15.9,30.2,19z"/></g></svg>