<svg xmlns="http://www.w3.org/2000/svg" viewBox="0 0 80 80"><path fill="#FFD05B" d="M66.759 40c0 1.08-.05 2.14-.16 3.19-.04.41-.09.82-.14 1.23-.22 1.56-.55 3.09-.99 4.57-.14.49-.29.97-.47 1.45-.06.22-.14.44-.22.65-.17.47-.35.93-.55 1.39-.13.32-.27.63-.43.94-.2.45-.42.9-.66 1.34-.04.11-.1.22-.16.32-.03.07-.07.14-.11.2-.21.4-.44.79-.67 1.17-.31.52-.63 1.02-.97 1.51-.13.2-.27.4-.41.59-.05.09-.11.17-.19.25.01.01.01.01-.01.02-.41.58-.85 1.15-1.32 1.7l-.12.15a32.61 32.61 0 0 1-2.88 3C50.6 68.85 43.05 72 34.76 72c-12.42 0-23.18-7.07-28.48-17.41-.59-1.13-1.1-2.3-1.55-3.5-.44-1.2-.81-2.44-1.11-3.71-.12-.48-.22-.97-.31-1.46-.1-.5-.18-.99-.24-1.5A30.555 30.555 0 0 1 2.76 40c0-.16 0-.31.01-.47 0-.34.01-.68.02-1.02.16-3.45.87-6.76 2.04-9.85.43-1.15.93-2.26 1.49-3.34h.01c.54-1.07 1.15-2.09 1.81-3.08C13.879 13.65 23.649 8 34.759 8c12.27 0 22.93 6.91 28.3 17.06a31.789 31.789 0 0 1 3.17 9.12v.01c.03.14.05.28.08.42v.02c.05.3.1.61.14.92.05.34.09.68.12 1.02.08.7.13 1.4.16 2.11.02.44.03.88.03 1.32z"/><path fill="#F1543F" d="M10.213 60.526C16.083 67.537 24.896 72 34.76 72c8.29 0 15.84-3.15 21.54-8.33a32.61 32.61 0 0 0 2.88-3c.04-.047.078-.097.118-.145H10.212z"/><path fill="#FF7058" d="M35.94 65.856c0 3.454 3.241 6.023 6.592 5.188A31.956 31.956 0 0 0 56.3 63.67a32.402 32.402 0 0 0 2.999-3.142l-.001-.003H41.27a5.331 5.331 0 0 0-5.33 5.331z"/><path fill="#EFF1F4" d="M77.239 40.32v10.77H4.729c-.44-1.2-.81-2.44-1.11-3.71-.12-.48-.22-.97-.31-1.46-.1-.5-.18-.99-.24-1.5a30.58 30.58 0 0 1-.31-4.42c0-.16 0-.31.01-.47 0-.34.01-.68.02-1.02.16-3.45.87-6.76 2.04-9.85.17-.94.33-1.79.49-2.53.1-.48.51-.81 1-.81h.01c.54-1.07 1.15-2.09 1.81-3.08h37.08c8.43 0 13.68.83 15.44 1.17.44.07.83.26 1.17.53l1.23 1.12 12.19 11.08a5.396 5.396 0 0 1 1.99 4.18z"/><path fill="#3F596B" d="M77.239 43.19v9.66c0 1.44-1.18 2.6-2.61 2.59l-8.7-.12-1.64-.02-.64-.01h-.09l-.69-.01-2.34-.03h-.39l-.38-.01-.47-.01h-.39l-.39-.01h-.56l-2.13-.03h-.02l-.4-.01-.64-.01h-.01l-1.63-.02h-.01l-26.11-.35h-.17l-1.26-.01-1.61-.02-.63-.01-1.66-.01h-.02l-1.72-.02h-.43l-.82-.01h-.04l-.37-.01h-.86l-.71-.01h-.03l-1.83-.02h-.62l-1.61-.02h-.01l-1.25-.01-5.07-.06c-.59-1.13-1.1-2.3-1.55-3.5-.44-1.2-.81-2.44-1.11-3.71-.12-.48-.22-.97-.31-1.46-.1-.5-.18-.99-.24-1.5-.06-.41-.11-.82-.15-1.23h74.32z"/><path fill="#FFF" d="M77.239 43.19v1.23H3.069c-.06-.41-.11-.82-.15-1.23h74.32z"/><path fill="#CED5E0" d="M26.839 54.56h.16v.24h-.17l-1.26-.01c-.155-.002.888.003-19.29-.2-2.773-5.31-3.648-10.695-3.49-16.08.16-3.45.87-6.76 2.04-9.85.17-.94.33-1.79.49-2.53.1-.48.51-.81 1-.81h.01c.54-1.07 1.15-2.09 1.81-3.08h19.76c-1.2 0-2.25.83-2.51 2.01-.75 3.23-2.13 10.72-2.51 18.94-.08 1.075-.47 8.853.48 10.21.115.346 1.032 1.15 2.12 1.15h.12l1.24.01z"/><path fill="#324A5E" d="M26.999 54.56v.24h-.17l-1.26-.01c-12.204-.13-11.738-.116-19.29-.2-1.742-3.335-2.957-7.276-3.36-11.4h19.948c-.054.718-.397 8.94.492 10.21.114.342 1.037 1.15 2.12 1.15h.12l1.24.01H27z"/><path fill="#EFF1F4" d="M22.879 43.19c-.03.4-.03.82-.04 1.23H3.069c-.06-.41-.11-.82-.15-1.23h19.96z"/><path fill="#22303F" d="M26.863 54c0 .273-.012.545-.037.806l-15.476-.161a7.774 7.774 0 0 1 7.745-8.414c4.274 0 7.768 3.482 7.768 7.77z"/><circle cx="19.093" cy="53.999" r="6.526" fill="#3F596B"/><path fill="#324A5E" d="M14.167 53.994a4.929 4.929 0 0 0 4.257 4.895c.379.051.67.36.67.742v.095a.75.75 0 0 1-.854.74 6.526 6.526 0 0 1-5.673-6.472c0-3.306 2.47-6.042 5.674-6.46a.75.75 0 0 1 .853.74v.096c0 .383-.291.69-.67.742a4.925 4.925 0 0 0-4.257 4.882z"/><path fill="#FFF" d="M23.079 51.09c-.07-.1-.15-.19-.23-.28-.56-.66-1.3-1.17-2.15-1.46h-.01c-.12-.04-.24-.08-.37-.12-.11-.03-.22-.05-.33-.07-.11-.03-.23-.05-.34-.05-.18-.03-.37-.04-.55-.04-2.963 0-4.94 2.522-4.94 4.93 0 2.402 1.994 4.93 4.94 4.93 2.37 0 4.488-1.732 4.86-4.15v-.01c.204-.899.033-2.432-.88-3.68zm-.81 0 .02.02-1.64 1.36c-.27-.28-.62-.48-1.01-.58l.36-2.1a4.3 4.3 0 0 1 2.27 1.3zm-6.35 0c.07-.09.14-.15.21-.22a4.32 4.32 0 0 1 2.06-1.08l.36 2.1c-.34.09-.65.25-.9.48v.01c-.04.02-.07.05-.11.09h-.01l-1.63-1.36s0-.02.01-.02h.01zm-.93 1.59 2 .73c-.104.394-.11.754 0 1.17l-2 .74c-.258-.773-.278-1.807 0-2.64zm.91 4.21 1.63-1.36h.01c.291.29.62.477 1.01.58l-.36 2.1c-.947-.206-1.753-.706-2.29-1.32zm4.1 1.32-.36-2.1c.39-.1.74-.3 1.01-.58l1.64 1.36c-.6.66-1.39 1.13-2.29 1.32zm3.19-2.89-1.99-.74c.111-.4.102-.784 0-1.17l1.99-.74c.27.774.29 1.778 0 2.65z"/><path fill="#E6E9EE" d="M20.679 58.66c-.92-.32-1.71-.9-2.28-1.64l-.21 1.19a4.32 4.32 0 0 1-2.06-1.08c-.08-.07-.16-.15-.24-.24h.01l1.63-1.36c.04.04.08.08.12.1v-.01c-.11-.29-.19-.6-.24-.91-.03-.24-.05-.47-.05-.72 0-.57.1-1.1.29-1.61v-.01c-.04.02-.07.05-.11.1h-.01l-1.63-1.36s0-.02.01-.02h.01c.07-.09.14-.15.21-.22a4.32 4.32 0 0 1 2.06-1.08l.21 1.19c.57-.74 1.36-1.33 2.29-1.63-.12-.04-.24-.08-.37-.12-.11-.03-.22-.05-.33-.07-.11-.03-.23-.05-.34-.05-.18-.03-.37-.04-.55-.04-.34 0-.68.03-1 .1-.16.03-.32.07-.47.12-.16.05-.31.11-.46.17-.15.06-.29.13-.43.2-.14.08-.27.16-.4.25-.11.08-.22.16-.32.23-.02.02-.04.04-.06.05-.03.02-.05.04-.08.07-.1.09-.19.17-.27.25-.02.02-.03.03-.04.05-.09.08-.17.17-.24.26-.08.09-.14.17-.21.26v.01c-.03.03-.05.07-.07.1-.03.04-.06.07-.08.11-.03.05-.06.09-.09.14-.02.04-.05.09-.08.14-.04.07-.08.15-.12.23 0 0 0 .01-.01.01 0 .01 0 .01-.01.02-.03.06-.05.13-.08.2-.03.06-.06.12-.08.19-.01.02-.02.05-.02.08-.02.03-.03.06-.04.09-.02.04-.04.08-.05.13l-.03.12c-.02.05-.03.1-.04.16-.03.06-.04.12-.05.19v.01c-.02.08-.03.15-.04.23-.01.08-.03.17-.03.25a4.07 4.07 0 0 0-.02.8v.04c.01.02.01.04.01.06v.07l.03.21h.01v.01c0 .05.01.1.01.15l.03.15c.01.03.01.05.02.08.01.08.03.16.05.24.01.02.01.04.02.05.03.09.06.18.09.26.01.05.03.1.05.15v.01c.02.05.04.09.06.14.06.15.13.29.2.43a4.925 4.925 0 0 0 .25.41c.09.13.18.26.28.38a5.334 5.334 0 0 0 .67.67c.12.1.24.19.37.29h.01c.26.17.54.33.83.45.15.06.3.12.46.17.15.05.31.09.47.12a4.71 4.71 0 0 0 1.5.07c.33-.02.65-.09.96-.19.05-.01.09-.02.14-.04-.01 0-.01 0-.02-.01zm-5.69-3.33v-.01c-.07-.21-.12-.42-.15-.64-.04-.23-.05-.45-.05-.69 0-.45.06-.89.2-1.31v-.01l2 .74c-.05.19-.08.38-.08.58 0 .21.03.4.08.59v.01l-.29.11-1.71.63z"/><path fill="#3F596B" d="M18.853 52.699a.42.42 0 0 1-.165.571.415.415 0 1 1-.407-.724.416.416 0 0 1 .572.153zm-.178 2.019a.416.416 0 0 1 .152.572.434.434 0 0 1-.584.152c-.19-.114-.267-.381-.14-.572a.415.415 0 0 1 .572-.152zm1.397.165a.42.42 0 0 1-.165.572.415.415 0 1 1-.407-.724.416.416 0 0 1 .572.152zm-2.235-.457a.426.426 0 1 1 .013-.851.426.426 0 0 1-.013.85zm1.676-1.143a.418.418 0 0 1-.152-.572.43.43 0 0 1 .584-.152c.19.114.266.368.14.572a.416.416 0 0 1-.572.152zm1.257.711a.426.426 0 1 1-.85.012.426.426 0 0 1 .85-.012z"/><path fill="#324A5E" d="M18.497 53.118a.373.373 0 0 0 .178.165.416.416 0 0 1-.559-.165.416.416 0 0 1 .165-.572.421.421 0 0 1 .407-.012c-.013 0-.013.012-.026.012a.416.416 0 0 0-.165.572zm.127 2.324c.013 0 .013.013.025.013a.42.42 0 0 1-.406-.013c-.19-.114-.267-.381-.14-.572a.416.416 0 0 1 .56-.165.374.374 0 0 0-.179.165c-.127.19-.05.458.14.572zm1.092-.14a.374.374 0 0 0 .178.165.416.416 0 0 1-.559-.165.416.416 0 0 1 .165-.571.42.42 0 0 1 .407-.013c-.013 0-.013.013-.026.013a.416.416 0 0 0-.165.571zm-1.689-.927a.359.359 0 0 1-.19.05.426.426 0 0 1 0-.85c.063 0 .127.013.19.05-.14.064-.228.204-.228.369s.089.318.228.381zm1.867-1.092c.013 0 .013.013.025.013a.42.42 0 0 1-.406-.013.418.418 0 0 1-.152-.572.428.428 0 0 1 .558-.165.375.375 0 0 0-.177.165.418.418 0 0 0 .152.572zm.635 1.092a.358.358 0 0 1-.19.05.426.426 0 0 1 0-.85c.063 0 .127.013.19.05-.14.064-.229.204-.229.369s.09.318.229.381z"/><path fill="#22303F" d="M67.305 54c0 .273-.012.545-.037.806l-15.477-.161a7.774 7.774 0 0 1 7.745-8.414c4.275 0 7.77 3.482 7.77 7.77z"/><circle cx="59.535" cy="53.999" r="6.526" fill="#3F596B"/><path fill="#324A5E" d="M54.608 53.994a4.929 4.929 0 0 0 4.257 4.895c.38.051.67.36.67.742v.095a.75.75 0 0 1-.853.74 6.526 6.526 0 0 1-5.674-6.472c0-3.306 2.471-6.042 5.674-6.46a.75.75 0 0 1 .854.74v.096c0 .383-.291.69-.67.742a4.925 4.925 0 0 0-4.258 4.882z"/><path fill="#FFF" d="M59.539 49.07c-2.904 0-4.94 2.438-4.94 4.93 0 2.346 1.84 4.93 4.94 4.93 2.739 0 4.93-2.239 4.93-4.93 0-2.825-2.345-4.93-4.93-4.93zm3.17 2.02.02.02-1.63 1.36c-.28-.28-.63-.48-1.02-.58l.36-2.1c.89.19 1.68.65 2.27 1.3zm-4.08-1.3.36 2.1c-.34.09-.65.25-.9.48v.01c-.04.02-.07.05-.11.09h-.01l-1.63-1.36.02-.02a4.19 4.19 0 0 1 2.27-1.3zm-3.19 5.53c-.242-.604-.316-1.69 0-2.64l1.99.73a2.18 2.18 0 0 0 0 1.17l-1.63.61-.36.13zm.9 1.57 1.63-1.36c.17.128.404.417 1.02.58l-.36 2.1c-.91-.19-1.7-.66-2.29-1.32zm4.1 1.32-.36-2.1c.39-.1.74-.3 1.02-.58l1.63 1.36c-.575.645-1.334 1.107-2.29 1.32zm3.21-2.92c0 .01-.01.02-.01.03l-2-.74a2.2 2.2 0 0 0 0-1.17l2-.74c.25.857.281 1.697.01 2.62z"/><path fill="#E6E9EE" d="M60.819 58.55c-.8-.34-1.48-.87-1.98-1.53l-.2 1.19h-.01c-.91-.19-1.7-.66-2.29-1.32l1.63-1.36c.04.04.08.08.12.1v-.01c-.05-.13-.09-.26-.14-.4-.04-.17-.07-.34-.1-.51-.03-.24-.05-.47-.05-.72 0-.57.1-1.1.29-1.61v-.01c-.04.02-.07.05-.11.1h-.01l-1.63-1.36.02-.02a4.19 4.19 0 0 1 2.27-1.3h.01l.2 1.19c.57-.73 1.36-1.32 2.28-1.62.01-.01.01-.01.02-.01-.12-.04-.25-.08-.38-.12-.11-.03-.22-.05-.33-.07-.12-.03-.25-.05-.39-.06a4.618 4.618 0 0 0-1.49.07 4.204 4.204 0 0 0-.71.2c-.07.02-.14.06-.22.09-.15.06-.29.13-.43.2-.14.08-.28.16-.41.25-.23.16-.44.33-.64.52-.11.1-.2.2-.3.31-.1.11-.19.22-.27.34l-.01.01c-.06.08-.12.16-.17.25-.02.02-.03.04-.05.07-.02.04-.05.08-.07.12-.03.06-.07.12-.1.18-.05.1-.11.21-.15.33-.03.06-.06.12-.08.19-.01.02-.02.05-.02.08-.02.03-.03.06-.04.09-.02.04-.04.08-.05.13l-.03.12a.75.75 0 0 0-.04.16c-.03.06-.04.12-.05.19v.01c-.02.08-.03.15-.04.23-.01.08-.03.17-.03.25a4.07 4.07 0 0 0-.02.8v.04c.01.02.01.04.01.06v.07l.03.21h.01c0 .06.01.11.01.16l.03.15c.01.07.03.13.05.19.01.06.03.12.04.18.01.02.01.03.01.04.03.08.05.15.08.22.01.05.03.1.05.15v.01c.02.05.04.09.06.14l.09.21c.02.06.05.11.07.16l.01.01c.02.03.03.05.03.06.03.04.05.09.08.13.02.04.04.07.06.1.04.05.07.1.1.15.04.07.09.13.13.19.05.08.11.15.16.21.02.02.04.04.05.06.09.1.18.2.27.29l.09.09c.04.04.08.08.13.12.04.04.09.08.13.11v.01l.03.02c.11.09.23.17.35.26.13.08.26.17.4.24l.01.01c.14.07.28.14.43.2.08.03.15.07.22.09.08.03.16.06.23.08.16.05.32.09.48.12a4.618 4.618 0 0 0 1.49.07c.2-.01.39-.04.58-.08.01 0 .01 0 .02-.01.12-.02.25-.05.36-.1.05-.01.09-.02.14-.04-.01 0-.01 0-.02-.01-.1-.03-.2-.07-.3-.11zm-5.02-3.36-.36.14v-.01a.736.736 0 0 1-.04-.14c-.05-.16-.09-.33-.12-.5-.03-.23-.05-.45-.05-.69 0-.45.07-.89.21-1.31v-.01l1.99.74c-.05.19-.08.38-.08.58 0 .21.03.4.08.59v.01l-.29.11-1.32.49h-.02z"/><path fill="#3F596B" d="M59.294 52.699a.42.42 0 0 1-.165.571.415.415 0 1 1-.406-.724.416.416 0 0 1 .572.153zm-.177 2.019a.416.416 0 0 1 .152.572.434.434 0 0 1-.584.152c-.19-.114-.267-.381-.14-.572a.415.415 0 0 1 .572-.152zm1.397.165a.42.42 0 0 1-.165.572.415.415 0 1 1-.407-.724.416.416 0 0 1 .572.152zm-2.235-.457a.426.426 0 1 1 .012-.851.426.426 0 0 1-.012.85zm1.676-1.143a.418.418 0 0 1-.152-.572.43.43 0 0 1 .584-.152c.19.114.266.368.14.572a.416.416 0 0 1-.572.152zm1.257.711a.426.426 0 1 1-.85.012.426.426 0 0 1 .85-.012z"/><path fill="#324A5E" d="M58.94 53.118a.373.373 0 0 0 .177.165.416.416 0 0 1-.559-.165.416.416 0 0 1 .165-.572.421.421 0 0 1 .407-.012c-.013 0-.013.012-.026.012a.416.416 0 0 0-.165.572zm.126 2.324c.013 0 .013.013.025.013a.42.42 0 0 1-.406-.013c-.19-.114-.267-.381-.14-.572a.416.416 0 0 1 .559-.165.374.374 0 0 0-.178.165c-.127.19-.05.458.14.572zm1.092-.14a.374.374 0 0 0 .178.165.416.416 0 0 1-.559-.165.416.416 0 0 1 .165-.571.42.42 0 0 1 .406-.013c-.012 0-.012.013-.025.013a.416.416 0 0 0-.165.571zm-1.689-.927a.359.359 0 0 1-.19.05.426.426 0 0 1 0-.85c.063 0 .126.013.19.05-.14.064-.228.204-.228.369s.088.318.228.381zm1.867-1.092c.013 0 .013.013.025.013a.42.42 0 0 1-.406-.013.418.418 0 0 1-.153-.572.428.428 0 0 1 .56-.165.375.375 0 0 0-.179.165.418.418 0 0 0 .153.572zm.635 1.092a.358.358 0 0 1-.19.05.426.426 0 0 1 0-.85c.063 0 .126.013.19.05-.14.064-.229.204-.229.369s.09.318.229.381z"/><path fill="#F1543F" d="M4.329 39.97v6.17c0 .53-.28.99-.71 1.24-.12-.48-.22-.97-.31-1.46-.1-.5-.18-.99-.24-1.5a30.583 30.583 0 0 1-.31-4.42c0-.16 0-.31.01-.47 0-.34.01-.68.02-1.02h.08c.8 0 1.46.65 1.46 1.46z"/><path fill="#FFD05B" d="M74.988 41.85h2.253v4.782h-2.253a.754.754 0 0 1-.754-.754v-3.275c0-.416.337-.754.754-.754z"/><path fill="#F9B54C" d="M76.089 46.627h-1.103a.759.759 0 0 1-.756-.756v-3.27c0-.41.347-.757.756-.757h1.103a.759.759 0 0 0-.756.756v3.271a.75.75 0 0 0 .756.756z"/><path fill="#2B3B4E" d="M51.137 36.572h17.362c.937 0 1.382-1.153.69-1.783l-9.002-8.187a1.03 1.03 0 0 0-.517-.252c-1.298-.227-4.178-.652-8.484-.88a1.024 1.024 0 0 0-1.074 1.024v9.053c0 .566.459 1.025 1.025 1.025z"/><path fill="#324A5E" d="m69.188 34.79-9.001-8.188a1.03 1.03 0 0 0-.517-.252 53.924 53.924 0 0 0-2.857-.408v10.63H68.5c.937 0 1.382-1.153.69-1.783z"/><path fill="#84DBFF" d="M68.5 35.55H51.133v-9.058c2.1.113 3.832.267 5.215.42 1.435.164 2.48.328 3.146.451l2.254 2.05 1.014.922 2.244 2.039L68.5 35.55z"/><path fill="#324A5E" d="M23.329 26.34v9.21c0 .56-.46 1.02-1.03 1.02H4.849c-.61 0-1.09-.54-1.02-1.14.3-2.53.66-4.84 1-6.77.17-.94.33-1.79.49-2.53.1-.48.51-.81 1-.81h15.98c.57 0 1.03.45 1.03 1.02z"/><path fill="#2B3B4E" d="M13.939 36.06c0 .28-.23.51-.51.51h-8.58c-.61 0-1.09-.54-1.02-1.14.3-2.53.66-4.84 1-6.77.17-.94.33-1.79.49-2.53.1-.48.51-.81 1-.81h7.11c.28 0 .51.23.51.51s-.23.51-.51.51h-7.1c-.32 1.5-.91 4.63-1.43 8.82-.02.12-.03.26-.05.39h8.58c.28 0 .51.23.51.51z"/><path fill="#84DBFF" d="M22.3 26.339v9.211H4.851c.02-.133.03-.266.051-.39.513-4.19 1.107-7.315 1.424-8.821H22.3z"/><path fill="#324A5E" d="M45.223 25.315H27.88c-.566 0-1.025.46-1.025 1.025v9.207c0 .566.459 1.025 1.025 1.025H46.07c.566 0 1.025-.459 1.025-1.025v-9.203c0-.564-.454-1.02-1.018-1.025-.28-.002-.565-.004-.855-.004z"/><path fill="#2B3B4E" d="M35.63 35.55h-7.746v-9.211h7.746a.512.512 0 1 0 0-1.025h-7.746c-.573 0-1.024.461-1.024 1.025v9.211c0 .564.45 1.025 1.024 1.025h7.746a.512.512 0 1 0 0-1.025z"/><path fill="#84DBFF" d="M46.071 26.349v9.201H27.884v-9.211h17.337l.666.01z"/><path fill="#324A5E" d="M55.627 38.696a.8.8 0 0 1-.8.799H51.78a.8.8 0 0 1 0-1.599h3.049a.8.8 0 0 1 .799.8z"/><path fill="#2B3B4E" d="M53.705 39.495h-1.927a.8.8 0 0 1 0-1.599h1.927a.8.8 0 0 0 0 1.599z"/><path fill="#324A5E" d="M44.123 42.464a.7.7 0 0 1-.698-.698v-2.664a.7.7 0 0 1 1.396 0v2.663a.7.7 0 0 1-.698.699z"/><path fill="#2B3B4E" d="M43.425 40.785v-1.683a.699.699 0 0 1 1.396 0v1.683a.7.7 0 0 0-1.396 0z"/><path fill="#9FE8FF" d="m17.382 26.339-5.769 9.211H4.852c.02-.133.03-.266.051-.39l5.513-8.821h6.967zM22.3 26.339v.297l-5.574 8.914h-3.504l5.758-9.211zM40.784 26.339l-5.768 9.211h-6.958l5.769-9.211zM45.887 26.349l-5.758 9.201h-3.515l5.758-9.211h2.849zM61.748 29.413l-3.842 6.137h-6.773v-.287l5.215-8.35c1.435.163 2.48.327 3.146.45l2.254 2.05zM65.006 32.374l-1.987 3.176h-3.515l3.258-5.215z"/><path fill="#2B3B4E" d="M67.795 36.572c0 1.145-.737 2.119-1.763 2.473-.419.144-.852-.195-.852-.638v-3.67c0-.444.433-.783.852-.638a2.618 2.618 0 0 1 1.763 2.473z"/><path fill="#22303F" d="M66.297 38.409c0 .164.062.317.164.43a1.66 1.66 0 0 1-.43.205c-.42.143-.85-.195-.85-.635V34.74c0-.451.43-.79.85-.646.153.051.297.123.43.205a.65.65 0 0 0-.164.44v3.669z"/></svg>